<?xml version="1.0" encoding="UTF-8"?>
<!DOCTYPE svg PUBLIC "-//W3C//DTD SVG 1.1//EN" "http://www.w3.org/Graphics/SVG/1.1/DTD/svg11.dtd">
<svg xmlns="http://www.w3.org/2000/svg"
    xmlns:xlink="http://www.w3.org/1999/xlink"
    version="1.1"
    viewBox="0 0 4.557878 8.8900604"
    height="8.8900604mm"
    width="4.557878mm"
>
    <desc>Starcraft2 Protoss Race</desc>
    <path
       d="M 0.35037,8.60073 C -0.06976,7.93704 -0.1189,6.73664 0.24004,5.90546 0.44533,5.43007 0.50013,5.38914 0.66514,5.58796 0.81026,5.76282 1.20222,5.74738 1.37168,5.56016 1.54575,5.36782 1.55315,4.8552 1.38648,4.53293 1.23247,4.23512 0.86589,3.937 0.6537,3.937 0.50403,3.937 0.49594,3.8342 0.49884,1.9685 L 0.50184,0 0.65465,0.42333 c 0.22485,0.62286 0.41097,0.95145 0.76082,1.34318 0.172,0.19258 0.36592,0.41922 0.43094,0.50364 0.10891,0.1414 0.1003,0.14899 -0.10933,0.0964 -0.32735,-0.0822 -0.47935,0.0826 -0.47935,0.51955 0,0.29054 0.0551,0.43049 0.26277,0.66697 C 1.97421,4.06982 2.32363,3.8935 2.25529,3.18229 2.22129,2.82898 2.23549,2.77418 2.35039,2.8146 2.57695,2.8943 2.79177,3.11706 2.96007,3.44681 3.18663,3.89072 3.17331,4.09298 2.92067,4.04469 2.63192,3.98949 2.54258,4.26841 2.7859,4.46544 3.02032,4.65526 3.18322,4.65284 3.50815,4.45474 3.89958,4.21604 4.0781,3.7681 4.03096,3.14294 4.00946,2.85792 3.96076,2.54852 3.92277,2.45539 L 3.85367,2.28606 4.04932,2.45539 C 4.3827,2.74393 4.55581,3.24099 4.55786,3.91555 4.56186,5.21107 3.84353,6.51458 2.66064,7.35867 1.90819,7.89561 1.79843,7.93071 2.00966,7.56685 2.20691,7.22706 2.24411,7.02149 2.1637,6.71553 2.0874,6.42534 1.8426,6.34828 1.52262,6.51375 1.03591,6.76544 0.66775,7.48313 0.58593,8.33972 L 0.53333,8.89006 Z M 0.67492,5.15348 C 0.47801,5.01555 0.43842,4.70554 0.59742,4.54656 0.7564,4.38757 1.06641,4.42716 1.20434,4.62406 1.46071,4.99009 1.04096,5.40984 0.67493,5.15347 Z"
       style="fill:#dec93e" />
</svg>
