<?xml version="1.0" encoding="UTF-8"?>
<!DOCTYPE svg PUBLIC "-//W3C//DTD SVG 1.1//EN" "http://www.w3.org/Graphics/SVG/1.1/DTD/svg11.dtd">
<svg xmlns="http://www.w3.org/2000/svg"
    xmlns:xlink="http://www.w3.org/1999/xlink"
    version="1.1"
    viewBox="0 0 6.1904898 6.349997"
    height="6.349997mm"
    width="6.1904898mm"
>
    <desc>Starcraft2 Terran Race</desc>
    <path
       d="M 1.81965,5.420077 C 2.30328,4.455763 2.37916,4.254624 2.15371,4.534651 2.05981,4.651221 2.00858,4.668232 1.97732,4.593171 1.90212,4.412703 1.76327,4.476794 1.82283,4.664451 1.86763,4.805573 1.84723,4.835448 1.7227,4.811458 1.60635,4.789048 1.56636,4.705859 1.56636,4.486175 c 0,-0.250851 0.0318,-0.299428 0.21167,-0.323509 0.23761,-0.03181 0.44596,-0.183331 0.25209,-0.183331 -0.0751,0 -0.0496,-0.04958 0.0677,-0.131801 0.10349,-0.07249 0.18817,-0.186791 0.18817,-0.254 0,-0.199614 -0.31311,-0.139066 -0.49829,0.09636 C 1.61786,3.905805 1.61273,3.906649 1.36383,3.759624 L 1.11187,3.610791 1.27803,3.399561 C 1.38935,3.258034 1.4161,3.160252 1.35913,3.103237 1.23878,2.982888 0.94372,3.266903 0.7568,3.683008 L 0.60467,4.021675 0.59867,3.280842 0.59267,2.540008 H 0.889 c 0.23688,0 0.29633,-0.03297 0.29633,-0.164336 0,-0.363918 -0.41907,-0.321576 -0.88745,0.08966 C 0.13405,2.609183 0,2.705849 0,2.680146 0,2.654446 0.0969,2.326646 0.21535,1.951708 L 0.4307,1.270004 h 1.22898 c 1.1547,0 1.45909,0.07036 0.90228,0.208564 -0.25104,0.06231 -0.61463,0.358359 -0.61463,0.500462 0,0.05115 0.0418,0.04508 0.1016,-0.01476 0.17139,-0.171392 0.299,-0.113435 0.28896,0.131232 -0.007,0.180586 0.0332,0.238905 0.18094,0.259889 0.13256,0.01883 0.1905,-0.01612 0.1905,-0.114892 0,-0.09139 -0.0452,-0.124589 -0.127,-0.09321 -0.0871,0.03341 -0.127,-0.0051 -0.127,-0.122261 0,-0.116666 0.098,-0.211933 0.30836,-0.299837 0.4058,-0.169553 0.68959,-0.09406 0.76036,0.202271 0.10835,0.453676 0.37101,0.574299 0.32432,0.148936 -0.0254,-0.231712 0.1094,-0.280894 0.29578,-0.107893 0.0927,0.086 0.10135,0.08204 0.0464,-0.02117 C 4.05,1.683412 3.86916,1.531851 3.63287,1.479953 3.49853,1.450443 3.36624,1.390103 3.33889,1.345854 3.30809,1.296024 3.76263,1.274334 4.5329,1.288864 l 1.24373,0.02347 0.15044,0.486555 C 6.00977,2.066495 6.10293,2.3867 6.13399,2.510456 L 6.19049,2.735467 5.88771,2.469624 C 5.4147,2.054316 4.99537,2.010162 4.99537,2.375664 4.99537,2.507032 5.05487,2.54 5.29171,2.54 H 5.58804 L 5.58204,3.280834 5.57604,4.021667 5.42391,3.683 C 5.23163,3.254962 4.9425,2.982298 4.81553,3.109268 4.75043,3.174338 4.77593,3.251881 4.90443,3.380384 L 5.08441,3.560367 4.8494,3.767175 C 4.72014,3.880919 4.59533,3.974946 4.57205,3.976123 4.54875,3.977323 4.46481,3.864204 4.38549,3.724799 4.29899,3.572842 4.17187,3.471334 4.06799,3.471334 c -0.22748,0 -0.22266,0.22161 0.008,0.344788 0.1415,0.07573 0.15581,0.112171 0.0659,0.167758 C 4.0167,4.06125 4.09809,4.110041 4.44558,4.166036 4.681,4.203966 4.69233,4.76644 4.45858,4.811457 4.33401,4.835447 4.31366,4.805557 4.35845,4.66445 4.41805,4.47679 4.27915,4.412699 4.20396,4.59317 4.17266,4.66823 4.12146,4.65122 4.02757,4.53465 3.8022,4.254725 3.87796,4.45568 4.36066,5.418149 L 4.82607,6.346144 4.45675,6.085826 C 4.07479,5.816596 3.84425,5.768425 3.45904,5.877362 3.255,5.935062 3.22863,5.915092 3.17031,5.658598 L 3.10611,5.376333 3.03261,5.651499 C 2.95211,5.952737 2.91479,5.968176 2.57727,5.839851 2.39427,5.770271 2.27413,5.789241 1.97227,5.935371 1.76511,6.035657 1.57555,6.169974 1.55104,6.233853 c -0.0245,0.06388 -0.0789,0.116144 -0.12088,0.116144 -0.042,0 0.13355,-0.418465 0.39005,-0.929923 z M 3e-5,5.969862 C 3e-5,5.829666 1.07203,3.81 1.14644,3.81 1.19664,3.81 1.31162,3.86424 1.40201,3.930539 1.56207,4.04793 1.55807,4.06787 1.24886,4.69394 1.07424,5.047514 0.93136,5.355222 0.93136,5.377734 c 0,0.02251 0.127,0.04093 0.28222,0.04093 0.37055,0 0.41361,0.05731 0.26256,0.349401 C 1.35356,6.00512 1.33311,6.011331 0.67519,6.011331 0.30385,6.011331 3e-5,5.992671 3e-5,5.969862 Z M 4.7033,5.765589 C 4.58948,5.545495 4.58998,5.514563 4.7083,5.469255 c 0.0725,-0.02782 0.22396,-0.05059 0.33657,-0.05059 0.11261,0 0.20474,-0.03236 0.20474,-0.07191 0,-0.03955 -0.13624,-0.328633 -0.30275,-0.642409 C 4.65769,4.159442 4.65069,4.126579 4.79065,3.97192 4.87125,3.88286 4.97891,3.810793 5.0299,3.811768 c 0.0924,0.0018 1.15105,1.943485 1.15105,2.111251 0,0.05392 -0.26293,0.08831 -0.67516,0.08831 -0.65951,0 -0.67811,-0.0057 -0.80224,-0.245745 z M 2.54003,1.031036 C 2.54003,0.949386 3.04678,0 3.09036,0 3.13396,0 3.6407,0.949391 3.6407,1.031036 c 0,0.102295 -0.37423,0.08488 -0.48151,-0.02241 -0.0663,-0.06628 -0.10797,-0.06628 -0.14894,0 -0.0659,0.106718 -0.47022,0.125987 -0.47022,0.02241 z"
       style="fill:#295a91" />
</svg>
