<?xml version="1.0" encoding="UTF-8"?>
<!DOCTYPE svg PUBLIC "-//W3C//DTD SVG 1.1//EN" "http://www.w3.org/Graphics/SVG/1.1/DTD/svg11.dtd">
<svg xmlns="http://www.w3.org/2000/svg"
    xmlns:xlink="http://www.w3.org/1999/xlink"
    version="1.1"
    viewBox="0 0 6.6135387 7.1741796"
    height="7.1741796mm"
    width="6.6135387mm"
>
    <desc>Starcraft2 Zerg Race</desc>
    <path
       d="M 1.6366,7.106622 C 1.37669,7.045192 0.69251,6.482142 0.69251,6.329683 c 0,-0.03571 0.13866,0.02917 0.30815,0.144183 0.38202,0.25925 0.95082,0.285858 1.16039,0.05428 C 2.34611,6.323662 2.33913,5.981571 2.14635,5.807101 1.92542,5.607159 1.73432,5.633555 1.56829,5.886951 1.45361,6.061978 1.44431,6.139185 1.52279,6.264819 1.70052,6.54941 1.42999,6.367679 1.2217,6.062581 1.01457,5.759133 0.95913,5.307213 1.137,5.372414 1.31418,5.437344 1.47097,5.278524 1.44074,5.064737 1.40144,4.78665 1.08959,4.750609 0.91234,5.003667 0.83804,5.109812 0.77658,5.350104 0.77587,5.537651 0.77491,5.786882 0.75277,5.844469 0.69367,5.751646 0.57458,5.564693 0.49837,4.956585 0.55928,4.679269 0.60428,4.474607 0.65378,4.438046 0.88523,4.438627 1.1322,4.439236 1.15816,4.415147 1.15816,4.185312 1.15816,3.971451 1.12156,3.927095 0.9264,3.904626 0.66613,3.874656 0.30474,4.194844 0.24333,4.509812 0.21223,4.669205 0.20603,4.664705 0.19603,4.475562 0.18123,4.195302 0.41586,3.505164 0.56931,3.377816 c 0.0917,-0.07608 0.14906,-0.06773 0.25371,0.03692 0.1851,0.185103 0.46214,0.0346 0.46214,-0.25106 0,-0.406791 -0.47875,-0.375212 -0.97969,0.06462 L 0,3.496502 0.13907,3.163573 C 0.29862,2.781638 0.63257,2.403287 0.96211,2.231118 1.18088,2.11682 1.19038,2.121064 1.21611,2.34451 c 0.0225,0.195544 0.0668,0.232135 0.28072,0.232135 0.21282,0 0.25827,-0.03696 0.28032,-0.227993 C 1.81425,2.027757 1.42205,1.83251 0.81754,1.87088 0.57118,1.88652 0.38708,1.871197 0.40843,1.83682 0.49283,1.701031 1.17542,1.358442 1.4683,1.304914 c 0.38386,-0.07015 0.72273,0.01874 0.58739,0.154079 -0.2628,0.262801 0.0801,0.661787 0.41481,0.482656 0.46116,-0.246809 -0.1875,-1.27 -0.80513,-1.27 -0.0749,0 -0.11265,-0.0381 -0.0839,-0.08467 C 1.66027,0.459405 2.60718,0.485366 2.91769,0.623619 3.42585,0.849873 3.45798,0.895353 3.23635,1.074816 2.96737,1.292617 3.04652,1.68765 3.35913,1.68765 3.85291,1.68765 4.00382,0.873919 3.61602,0.302465 3.40052,-0.015093 3.44537,-0.077667 3.7672,0.091562 4.21167,0.325281 4.75451,0.906019 4.75591,1.149304 4.75623,1.202464 4.66371,1.269228 4.55044,1.297668 4.13403,1.402182 4.20995,1.94165 4.64104,1.94165 c 0.33454,0 0.55845,-0.448959 0.50671,-1.016 -0.0396,-0.433412 -0.0334,-0.453938 0.089,-0.296334 0.22769,0.2933 0.45436,0.867883 0.47424,1.20212 C 5.72839,2.123189 5.70899,2.155768 5.5035,2.179509 5.10933,2.225059 4.98277,2.609927 5.31948,2.739133 5.62904,2.857921 6.0151,2.349094 6.03491,1.796203 l 0.008,-0.235553 0.0678,0.211666 c 0.0988,0.308384 0.0967,0.84226 -0.005,1.20724 C 6.02591,3.266872 6.00033,3.288694 5.84231,3.204124 5.60181,3.075411 5.34648,3.309379 5.48588,3.530738 5.53668,3.611358 5.6338,3.688291 5.70177,3.701704 5.89915,3.740654 6.2847,3.384154 6.45219,3.007821 6.64684,2.570483 6.67155,2.83251 6.49249,3.435387 6.32734,3.991504 5.80474,4.790149 5.19716,5.414928 L 4.7083,5.917629 4.37215,5.825889 C 3.38505,5.556486 2.53637,4.880921 2.4225,4.273934 2.3602,3.942091 2.55153,3.304987 2.76715,3.126043 2.99091,2.940334 3.51289,2.926316 3.72768,3.100243 3.95443,3.283853 4.01177,3.790148 3.83054,4.008509 3.68813,4.180111 3.56038,4.182803 3.6256,4.012809 3.7035,3.809894 3.41387,3.537457 3.22675,3.637597 2.67286,3.934031 3.25855,4.797508 3.85873,4.569319 4.56246,4.301762 4.68652,3.186031 4.0702,2.667436 3.20947,1.943182 1.88487,2.793382 1.87887,4.073951 1.87487,4.996824 2.50194,5.776495 3.57034,6.17597 3.73333,6.23691 3.89904,6.314934 3.9386,6.349358 4.04193,6.439268 3.31398,6.844437 2.7131,7.031451 2.16198,7.202979 2.07051,7.20936 1.63577,7.106601 Z"
       style="fill:#882991" />
</svg>
