<?xml version="1.0" encoding="UTF-8"?>
<!DOCTYPE svg PUBLIC "-//W3C//DTD SVG 1.1//EN" "http://www.w3.org/Graphics/SVG/1.1/DTD/svg11.dtd">
<svg xmlns="http://www.w3.org/2000/svg"
    xmlns:xlink="http://www.w3.org/1999/xlink"
    version="1.1"
    viewBox="0 0 13.506599 14.552083"
    height="14.552083mm"
    width="13.506599mm"
>
    <desc>Starcraft2 Platinum League</desc>
    <path
       d="M 3.95896,11.682826 1.09859,8.8135684 2.17753,7.2733374 C 3.32788,5.63116 3.51282,4.775468 2.83838,4.21573 L 2.42029,3.868749 1.7139,4.150786 C 1.32538,4.305906 0.78082,4.526772 0.50375,4.641599 L 0,4.850374 0.1506,3.727568 C 0.33798,2.330552 0.91688,1.671618 2.30735,1.272621 2.90213,1.10195 3.70479,0.745791 4.09106,0.481155 L 4.79336,0 h 1.97728 1.9772799 l 0.36313,0.437105 c 0.19972,0.240408 1.2704201,2.056111 2.3793301,4.034896 l 2.01622,3.5977904 -3.20287,3.2411456 c -1.7615801,1.782631 -3.26621,3.241146 -3.34364,3.241146 -0.0774,0 -1.42794,-1.291166 -3.00113,-2.869257 z m 2.34021,-9.56616 0.76046,-0.79375 h -1.6865 -1.6865 l 0.76046,0.79375 c 0.41825,0.436563 0.83497,0.79375 0.92604,0.79375 0.0911,0 0.50779,-0.357187 0.92604,-0.79375 z"
       style="fill:#a5a4a3"/>
</svg>
